<?xml version="1.0" encoding="UTF-8" standalone="no"?>
<svg
   xmlns:dc="http://purl.org/dc/elements/1.1/"
   xmlns:cc="http://creativecommons.org/ns#"
   xmlns:rdf="http://www.w3.org/1999/02/22-rdf-syntax-ns#"
   xmlns:svg="http://www.w3.org/2000/svg"
   xmlns="http://www.w3.org/2000/svg"
   xmlns:sodipodi="http://sodipodi.sourceforge.net/DTD/sodipodi-0.dtd"
   xmlns:inkscape="http://www.inkscape.org/namespaces/inkscape"
   width="60mm"
   height="60mm"
   viewBox="0 0 60 60"
   version="1.1"
   id="svg2218"
   inkscape:version="1.0.1 (3bc2e813f5, 2020-09-07)"
   sodipodi:docname="RAVEN_Black_bg.svg">
  <defs
     id="defs2212" />
  <sodipodi:namedview
     id="base"
     pagecolor="#ffffff"
     bordercolor="#666666"
     borderopacity="1.0"
     inkscape:pageopacity="0.0"
     inkscape:pageshadow="2"
     inkscape:zoom="1.4"
     inkscape:cx="48.796048"
     inkscape:cy="115.06741"
     inkscape:document-units="mm"
     inkscape:current-layer="layer2-6-6-1"
     inkscape:document-rotation="0"
     showgrid="false"
     inkscape:window-width="1440"
     inkscape:window-height="897"
     inkscape:window-x="-8"
     inkscape:window-y="-8"
     inkscape:window-maximized="1" />
  <metadata
     id="metadata2215">
    <rdf:RDF>
      <cc:Work
         rdf:about="">
        <dc:format>image/svg+xml</dc:format>
        <dc:type
           rdf:resource="http://purl.org/dc/dcmitype/StillImage" />
        <dc:title></dc:title>
      </cc:Work>
    </rdf:RDF>
  </metadata>
  <g
     inkscape:label="Lag 1"
     inkscape:groupmode="layer"
     id="layer1"
     transform="translate(-88.151721,-99.69194)">
    <g
       id="layer2-6-6-1"
       inkscape:label="Lag 2"
       style="display:inline"
       transform="matrix(0.26116882,0,0,0.27412694,91.054993,83.903314)">
      <rect
         style="fill:#000000;fill-opacity:1;stroke-width:1.55035"
         id="rect2791"
         width="229.73647"
         height="218.87669"
         x="-11.116458"
         y="57.596039" />
      <path
         style="fill:#ffffff;fill-opacity:1;stroke:none;stroke-width:0.264583px;stroke-linecap:butt;stroke-linejoin:miter;stroke-opacity:1"
         d="m 90.871639,191.76588 11.592811,18.10751 0.90203,-15.56845 3.57474,22.25019 8.11831,7.01583 -1.60362,-20.17885 12.2944,26.99422 14.16529,11.35896 -11.09169,-41.69405 23.65335,43.56493 25.52424,9.08716 -48.50942,-88.59984 z"
         id="path897-4-8-5"
         sodipodi:nodetypes="ccccccccccccc" />
      <path
         id="path899-4-1-3"
         style="display:inline;fill:#ffffff;fill-opacity:1;stroke:none;stroke-width:0.999999px;stroke-linecap:butt;stroke-linejoin:miter;stroke-opacity:1"
         d="m 418.76953,301.22461 c -41.19586,-0.33249 -70.56023,5.82206 -90.69363,37.22293 -59.30371,14.73572 -101.84312,33.10716 -118.97819,75.94841 l 122.99037,-13.87134 c 38.40654,-3.63798 42.57981,24.64998 46.71856,55.05351 -42.26217,33.8123 -197.00805,153.31314 -196.47461,224.75977 L 315.16797,603.06055 162.63478,709.63281 153.03906,769.73633 394.96875,567.20117 44.067198,910.52574 499.88393,568.28711 l 62.2355,116.6626 C 643.62215,520.784 567.01641,439.79087 429.82031,473.76172 c 44.50235,-25.87344 97.37814,-33.59937 152.02735,3.03125 -13.99688,-65.03384 -33.32895,-121.18916 -100.42774,-163.375 -14.48526,-7.53055 -37.93287,-11.99387 -62.65039,-12.19336 z m -15.45333,28.81156 -16.90139,16.24468 -25.82525,-5.80736 z"
         transform="scale(0.26458333)"
         sodipodi:nodetypes="scccccccccccccccscccc" />
    </g>
  </g>
</svg>
